<mxfile host="app.diagrams.net" modified="2022-02-23T11:41:04.251Z" agent="5.0 (Macintosh; Intel Mac OS X 10_15_7) AppleWebKit/605.1.15 (KHTML, like Gecko) Version/15.3 Safari/605.1.15" etag="IhYtr9Dex9ndctZz1zCo" version="16.6.2" type="github">
  <diagram id="4Bzy5mMl3iD5wntOBo7K" name="Page-1">
    <mxGraphModel dx="1426" dy="698" grid="1" gridSize="10" guides="1" tooltips="1" connect="1" arrows="1" fold="1" page="1" pageScale="1" pageWidth="827" pageHeight="1169" math="0" shadow="0">
      <root>
        <mxCell id="0" />
        <mxCell id="1" parent="0" />
        <mxCell id="3RewKvc4aqpq9MGLDfMl-13" style="edgeStyle=orthogonalEdgeStyle;rounded=0;orthogonalLoop=1;jettySize=auto;html=1;exitX=1;exitY=0.5;exitDx=0;exitDy=0;entryX=0;entryY=0.5;entryDx=0;entryDy=0;startArrow=classic;startFill=1;" edge="1" parent="1" source="3RewKvc4aqpq9MGLDfMl-1" target="3RewKvc4aqpq9MGLDfMl-3">
          <mxGeometry relative="1" as="geometry" />
        </mxCell>
        <mxCell id="3RewKvc4aqpq9MGLDfMl-16" style="edgeStyle=orthogonalEdgeStyle;rounded=0;orthogonalLoop=1;jettySize=auto;html=1;exitX=0;exitY=0.5;exitDx=0;exitDy=0;startArrow=none;startFill=0;" edge="1" parent="1" source="3RewKvc4aqpq9MGLDfMl-1">
          <mxGeometry relative="1" as="geometry">
            <mxPoint x="50" y="220" as="targetPoint" />
          </mxGeometry>
        </mxCell>
        <mxCell id="3RewKvc4aqpq9MGLDfMl-1" value="Network - Rest" style="rounded=1;whiteSpace=wrap;html=1;" vertex="1" parent="1">
          <mxGeometry x="110" y="190" width="120" height="60" as="geometry" />
        </mxCell>
        <mxCell id="3RewKvc4aqpq9MGLDfMl-17" style="edgeStyle=orthogonalEdgeStyle;rounded=0;orthogonalLoop=1;jettySize=auto;html=1;exitX=0;exitY=0.5;exitDx=0;exitDy=0;startArrow=none;startFill=0;endArrow=classic;endFill=1;" edge="1" parent="1" source="3RewKvc4aqpq9MGLDfMl-2">
          <mxGeometry relative="1" as="geometry">
            <mxPoint x="50" y="310" as="targetPoint" />
          </mxGeometry>
        </mxCell>
        <mxCell id="3RewKvc4aqpq9MGLDfMl-2" value="Network - WebSocket" style="rounded=1;whiteSpace=wrap;html=1;" vertex="1" parent="1">
          <mxGeometry x="110" y="280" width="120" height="60" as="geometry" />
        </mxCell>
        <mxCell id="3RewKvc4aqpq9MGLDfMl-18" style="edgeStyle=orthogonalEdgeStyle;rounded=0;orthogonalLoop=1;jettySize=auto;html=1;exitX=1;exitY=0.5;exitDx=0;exitDy=0;entryX=0.5;entryY=0;entryDx=0;entryDy=0;startArrow=classic;startFill=1;endArrow=classic;endFill=1;" edge="1" parent="1" source="3RewKvc4aqpq9MGLDfMl-3" target="3RewKvc4aqpq9MGLDfMl-6">
          <mxGeometry relative="1" as="geometry" />
        </mxCell>
        <mxCell id="3RewKvc4aqpq9MGLDfMl-3" value="Synchronizer" style="rounded=1;whiteSpace=wrap;html=1;" vertex="1" parent="1">
          <mxGeometry x="294" y="190" width="120" height="60" as="geometry" />
        </mxCell>
        <mxCell id="3RewKvc4aqpq9MGLDfMl-15" style="edgeStyle=orthogonalEdgeStyle;rounded=0;orthogonalLoop=1;jettySize=auto;html=1;exitX=0.5;exitY=1;exitDx=0;exitDy=0;entryX=0.5;entryY=0;entryDx=0;entryDy=0;startArrow=classic;startFill=1;" edge="1" parent="1" source="3RewKvc4aqpq9MGLDfMl-4" target="3RewKvc4aqpq9MGLDfMl-3">
          <mxGeometry relative="1" as="geometry" />
        </mxCell>
        <mxCell id="3RewKvc4aqpq9MGLDfMl-4" value="Local DB" style="rounded=1;whiteSpace=wrap;html=1;" vertex="1" parent="1">
          <mxGeometry x="294" y="80" width="120" height="60" as="geometry" />
        </mxCell>
        <mxCell id="3RewKvc4aqpq9MGLDfMl-12" style="edgeStyle=orthogonalEdgeStyle;rounded=0;orthogonalLoop=1;jettySize=auto;html=1;exitX=0;exitY=0.5;exitDx=0;exitDy=0;entryX=1;entryY=0.5;entryDx=0;entryDy=0;startArrow=classic;startFill=1;" edge="1" parent="1" source="3RewKvc4aqpq9MGLDfMl-5" target="3RewKvc4aqpq9MGLDfMl-2">
          <mxGeometry relative="1" as="geometry" />
        </mxCell>
        <mxCell id="3RewKvc4aqpq9MGLDfMl-5" value="SocketManager" style="rounded=1;whiteSpace=wrap;html=1;" vertex="1" parent="1">
          <mxGeometry x="294" y="280" width="120" height="60" as="geometry" />
        </mxCell>
        <mxCell id="3RewKvc4aqpq9MGLDfMl-11" style="edgeStyle=orthogonalEdgeStyle;rounded=0;orthogonalLoop=1;jettySize=auto;html=1;exitX=0;exitY=0.5;exitDx=0;exitDy=0;entryX=1;entryY=0.5;entryDx=0;entryDy=0;startArrow=classic;startFill=1;" edge="1" parent="1" source="3RewKvc4aqpq9MGLDfMl-6" target="3RewKvc4aqpq9MGLDfMl-5">
          <mxGeometry relative="1" as="geometry" />
        </mxCell>
        <mxCell id="3RewKvc4aqpq9MGLDfMl-6" value="Repository" style="rounded=1;whiteSpace=wrap;html=1;" vertex="1" parent="1">
          <mxGeometry x="480" y="280" width="120" height="60" as="geometry" />
        </mxCell>
        <mxCell id="3RewKvc4aqpq9MGLDfMl-9" style="edgeStyle=orthogonalEdgeStyle;rounded=0;orthogonalLoop=1;jettySize=auto;html=1;entryX=0;entryY=0.5;entryDx=0;entryDy=0;startArrow=classic;startFill=1;" edge="1" parent="1" source="3RewKvc4aqpq9MGLDfMl-7" target="3RewKvc4aqpq9MGLDfMl-8">
          <mxGeometry relative="1" as="geometry" />
        </mxCell>
        <mxCell id="3RewKvc4aqpq9MGLDfMl-10" style="edgeStyle=orthogonalEdgeStyle;rounded=0;orthogonalLoop=1;jettySize=auto;html=1;exitX=0;exitY=0.5;exitDx=0;exitDy=0;entryX=1;entryY=0.5;entryDx=0;entryDy=0;startArrow=classic;startFill=1;" edge="1" parent="1" source="3RewKvc4aqpq9MGLDfMl-7" target="3RewKvc4aqpq9MGLDfMl-6">
          <mxGeometry relative="1" as="geometry" />
        </mxCell>
        <mxCell id="3RewKvc4aqpq9MGLDfMl-47" style="edgeStyle=orthogonalEdgeStyle;rounded=0;orthogonalLoop=1;jettySize=auto;html=1;entryX=0.5;entryY=1;entryDx=0;entryDy=0;startArrow=none;startFill=0;endArrow=classic;endFill=1;" edge="1" parent="1" source="3RewKvc4aqpq9MGLDfMl-7" target="3RewKvc4aqpq9MGLDfMl-41">
          <mxGeometry relative="1" as="geometry">
            <Array as="points">
              <mxPoint x="730" y="230" />
              <mxPoint x="1000" y="230" />
            </Array>
          </mxGeometry>
        </mxCell>
        <mxCell id="3RewKvc4aqpq9MGLDfMl-7" value="ViewModel" style="rounded=1;whiteSpace=wrap;html=1;" vertex="1" parent="1">
          <mxGeometry x="670" y="280" width="120" height="60" as="geometry" />
        </mxCell>
        <mxCell id="3RewKvc4aqpq9MGLDfMl-8" value="View" style="rounded=1;whiteSpace=wrap;html=1;" vertex="1" parent="1">
          <mxGeometry x="860" y="280" width="120" height="60" as="geometry" />
        </mxCell>
        <mxCell id="3RewKvc4aqpq9MGLDfMl-29" style="edgeStyle=orthogonalEdgeStyle;rounded=0;orthogonalLoop=1;jettySize=auto;html=1;exitX=0;exitY=0.5;exitDx=0;exitDy=0;entryX=1;entryY=0.5;entryDx=0;entryDy=0;startArrow=classic;startFill=1;endArrow=classic;endFill=1;" edge="1" parent="1" source="3RewKvc4aqpq9MGLDfMl-26" target="3RewKvc4aqpq9MGLDfMl-27">
          <mxGeometry relative="1" as="geometry" />
        </mxCell>
        <mxCell id="3RewKvc4aqpq9MGLDfMl-26" value="탭 바" style="rounded=1;whiteSpace=wrap;html=1;" vertex="1" parent="1">
          <mxGeometry x="870" y="480" width="120" height="60" as="geometry" />
        </mxCell>
        <mxCell id="3RewKvc4aqpq9MGLDfMl-32" style="edgeStyle=orthogonalEdgeStyle;rounded=0;orthogonalLoop=1;jettySize=auto;html=1;exitX=0;exitY=0.5;exitDx=0;exitDy=0;entryX=1;entryY=0.5;entryDx=0;entryDy=0;startArrow=classic;startFill=1;endArrow=classic;endFill=1;" edge="1" parent="1" source="3RewKvc4aqpq9MGLDfMl-27" target="3RewKvc4aqpq9MGLDfMl-31">
          <mxGeometry relative="1" as="geometry" />
        </mxCell>
        <mxCell id="3RewKvc4aqpq9MGLDfMl-27" value="코인 목록" style="rounded=1;whiteSpace=wrap;html=1;" vertex="1" parent="1">
          <mxGeometry x="670" y="430" width="120" height="60" as="geometry" />
        </mxCell>
        <mxCell id="3RewKvc4aqpq9MGLDfMl-30" style="edgeStyle=orthogonalEdgeStyle;rounded=0;orthogonalLoop=1;jettySize=auto;html=1;exitX=1;exitY=0.5;exitDx=0;exitDy=0;entryX=0;entryY=0.5;entryDx=0;entryDy=0;startArrow=classic;startFill=1;endArrow=classic;endFill=1;" edge="1" parent="1" source="3RewKvc4aqpq9MGLDfMl-28" target="3RewKvc4aqpq9MGLDfMl-26">
          <mxGeometry relative="1" as="geometry" />
        </mxCell>
        <mxCell id="3RewKvc4aqpq9MGLDfMl-28" value="입출금 현황" style="rounded=1;whiteSpace=wrap;html=1;" vertex="1" parent="1">
          <mxGeometry x="670" y="525" width="120" height="60" as="geometry" />
        </mxCell>
        <mxCell id="3RewKvc4aqpq9MGLDfMl-36" style="edgeStyle=orthogonalEdgeStyle;rounded=0;orthogonalLoop=1;jettySize=auto;html=1;exitX=0;exitY=0.5;exitDx=0;exitDy=0;entryX=1;entryY=0.5;entryDx=0;entryDy=0;startArrow=none;startFill=0;endArrow=classic;endFill=1;" edge="1" parent="1" source="3RewKvc4aqpq9MGLDfMl-31" target="3RewKvc4aqpq9MGLDfMl-33">
          <mxGeometry relative="1" as="geometry" />
        </mxCell>
        <mxCell id="3RewKvc4aqpq9MGLDfMl-37" style="edgeStyle=orthogonalEdgeStyle;rounded=0;orthogonalLoop=1;jettySize=auto;html=1;exitX=0;exitY=0.5;exitDx=0;exitDy=0;entryX=1;entryY=0.5;entryDx=0;entryDy=0;startArrow=none;startFill=0;endArrow=classic;endFill=1;" edge="1" parent="1" source="3RewKvc4aqpq9MGLDfMl-31" target="3RewKvc4aqpq9MGLDfMl-34">
          <mxGeometry relative="1" as="geometry" />
        </mxCell>
        <mxCell id="3RewKvc4aqpq9MGLDfMl-38" style="edgeStyle=orthogonalEdgeStyle;rounded=0;orthogonalLoop=1;jettySize=auto;html=1;exitX=0;exitY=0.5;exitDx=0;exitDy=0;entryX=1;entryY=0.5;entryDx=0;entryDy=0;startArrow=none;startFill=0;endArrow=classic;endFill=1;" edge="1" parent="1" source="3RewKvc4aqpq9MGLDfMl-31" target="3RewKvc4aqpq9MGLDfMl-35">
          <mxGeometry relative="1" as="geometry" />
        </mxCell>
        <mxCell id="3RewKvc4aqpq9MGLDfMl-31" value="페이저" style="rounded=1;whiteSpace=wrap;html=1;" vertex="1" parent="1">
          <mxGeometry x="470" y="430" width="120" height="60" as="geometry" />
        </mxCell>
        <mxCell id="3RewKvc4aqpq9MGLDfMl-33" value="코인 실거래 그래프" style="rounded=1;whiteSpace=wrap;html=1;" vertex="1" parent="1">
          <mxGeometry x="270" y="430" width="120" height="60" as="geometry" />
        </mxCell>
        <mxCell id="3RewKvc4aqpq9MGLDfMl-34" value="체결내역" style="rounded=1;whiteSpace=wrap;html=1;" vertex="1" parent="1">
          <mxGeometry x="270" y="525" width="120" height="60" as="geometry" />
        </mxCell>
        <mxCell id="3RewKvc4aqpq9MGLDfMl-35" value="호가 정보" style="rounded=1;whiteSpace=wrap;html=1;" vertex="1" parent="1">
          <mxGeometry x="270" y="620" width="120" height="60" as="geometry" />
        </mxCell>
        <mxCell id="3RewKvc4aqpq9MGLDfMl-41" value="Coordinator" style="rounded=1;whiteSpace=wrap;html=1;" vertex="1" parent="1">
          <mxGeometry x="940" y="110" width="120" height="60" as="geometry" />
        </mxCell>
        <mxCell id="3RewKvc4aqpq9MGLDfMl-44" style="edgeStyle=orthogonalEdgeStyle;rounded=0;orthogonalLoop=1;jettySize=auto;html=1;entryX=0;entryY=0.5;entryDx=0;entryDy=0;startArrow=classic;startFill=1;" edge="1" parent="1" source="3RewKvc4aqpq9MGLDfMl-45" target="3RewKvc4aqpq9MGLDfMl-46">
          <mxGeometry relative="1" as="geometry" />
        </mxCell>
        <mxCell id="3RewKvc4aqpq9MGLDfMl-48" style="edgeStyle=orthogonalEdgeStyle;rounded=0;orthogonalLoop=1;jettySize=auto;html=1;startArrow=none;startFill=0;endArrow=classic;endFill=1;" edge="1" parent="1" source="3RewKvc4aqpq9MGLDfMl-45">
          <mxGeometry relative="1" as="geometry">
            <mxPoint x="1000" y="170" as="targetPoint" />
            <Array as="points">
              <mxPoint x="1080" y="230" />
              <mxPoint x="1000" y="230" />
            </Array>
          </mxGeometry>
        </mxCell>
        <mxCell id="3RewKvc4aqpq9MGLDfMl-45" value="ViewModel" style="rounded=1;whiteSpace=wrap;html=1;" vertex="1" parent="1">
          <mxGeometry x="1020" y="280" width="120" height="60" as="geometry" />
        </mxCell>
        <mxCell id="3RewKvc4aqpq9MGLDfMl-46" value="View" style="rounded=1;whiteSpace=wrap;html=1;" vertex="1" parent="1">
          <mxGeometry x="1210" y="280" width="120" height="60" as="geometry" />
        </mxCell>
      </root>
    </mxGraphModel>
  </diagram>
</mxfile>
